<svg width="108" height="27" viewBox="0 0 108 27" fill="none" xmlns="http://www.w3.org/2000/svg">
<path id="Vector" d="M43.2 10.08H78.795L88.875 0H42.255C29.43 0 25.965 1.53 18.99 8.145C12.195 14.85 0 27 0 27H15.21C18.675 23.625 25.11 17.415 28.035 14.625C32.175 10.71 34.2 10.08 43.2 10.08ZM91.755 0L64.755 27H81L108 0H91.755ZM77.13 11.745H44.46C34.47 11.745 32.76 12.285 28.485 16.56C24.48 20.565 18 27 18 27H32.175L35.55 23.625C37.755 21.42 38.925 21.15 43.56 21.15H67.725L77.13 11.745Z" fill="white"/>
</svg>
